<svg height="468pt" viewBox="0 -37 468 468" width="468pt" xmlns="http://www.w3.org/2000/svg"><path d="m37.449219 394h393.097656c20.652344 0 37.453125-17.042969 37.453125-38.542969v-252.105469c0-.027343 0-.050781 0-.078124 0-.027344 0-.050782 0-.078126v-64.652343c0-21.5-16.800781-38.542969-37.453125-38.542969h-393.097656c-20.648438 0-37.449219 17.042969-37.449219 38.542969v316.914062c0 21.5 16.800781 38.542969 37.449219 38.542969zm393.097656-12h-393.097656c-14.035157 0-25.449219-11.660156-25.449219-26.542969v-246.457031h444v246.457031c0 14.882813-11.421875 26.542969-25.453125 26.542969zm-393.097656-370h393.097656c14.03125 0 25.453125 11.660156 25.453125 26.542969v58.457031h-444v-58.457031c0-14.882813 11.414062-26.542969 25.449219-26.542969zm0 0"/><path d="m121.308594 83.03125c14.871094 0 26.96875-12.558594 26.96875-27.992188 0-15.4375-12.101563-27.996093-26.96875-27.996093-14.863282 0-26.964844 12.558593-26.964844 27.996093s12.097656 27.992188 26.964844 27.992188zm0-43.988281c8.253906 0 14.96875 7.175781 14.96875 15.996093 0 8.816407-6.714844 15.992188-14.96875 15.992188-8.25 0-14.964844-7.175781-14.964844-15.992188 0-8.820312 6.714844-15.996093 14.964844-15.996093zm0 0"/><path d="m189.449219 83.03125c14.867187 0 26.964843-12.558594 26.964843-27.992188 0-15.4375-12.101562-27.996093-26.964843-27.996093-14.867188 0-26.96875 12.558593-26.96875 27.996093s12.097656 27.992188 26.96875 27.992188zm0-43.988281c8.25 0 14.964843 7.175781 14.964843 15.996093 0 8.816407-6.714843 15.992188-14.964843 15.992188-8.253907 0-14.96875-7.175781-14.96875-15.992188 0-8.820312 6.71875-15.996093 14.96875-15.996093zm0 0"/><path d="m53.171875 83.03125c14.867187 0 26.964844-12.558594 26.964844-27.992188 0-15.4375-12.097657-27.996093-26.964844-27.996093s-26.964844 12.558593-26.964844 27.996093 12.09375 27.992188 26.964844 27.992188zm0-43.988281c8.253906 0 14.964844 7.175781 14.964844 15.996093 0 8.816407-6.710938 15.992188-14.964844 15.992188-8.25 0-14.964844-7.175781-14.964844-15.992188 0-8.820312 6.714844-15.996093 14.964844-15.996093zm0 0"/><path d="m379 156c0-3.3125-2.6875-6-6-6h-278c-3.3125 0-6 2.6875-6 6v180c0 3.3125 2.6875 6 6 6h278c3.3125 0 6-2.6875 6-6zm-145 121.695312-123.824219-115.695312h247.625zm-51.878906-31.972656-81.121094 76.378906v-152.179687zm9.035156 8.128906 38.742188 36.242188c2.296874 2.167969 5.882812 2.179688 8.195312.027344l40.25-37.6875 79.789062 77.566406h-247.941406zm96.214844-9.535156 79.628906-74.410156v151.894531zm0 0"/></svg>