<?xml version="1.0" encoding="UTF-8" standalone="no"?>
<!-- Created with Inkscape (http://www.inkscape.org/) -->

<svg
   xmlns:dc="http://purl.org/dc/elements/1.1/"
   xmlns:cc="http://creativecommons.org/ns#"
   xmlns:rdf="http://www.w3.org/1999/02/22-rdf-syntax-ns#"
   xmlns:svg="http://www.w3.org/2000/svg"
   xmlns="http://www.w3.org/2000/svg"
   xmlns:sodipodi="http://sodipodi.sourceforge.net/DTD/sodipodi-0.dtd"
   xmlns:inkscape="http://www.inkscape.org/namespaces/inkscape"
   width="181.28314mm"
   height="75.447289mm"
   viewBox="0 0 181.28314 75.447289"
   version="1.1"
   id="svg8"
   sodipodi:docname="Новый документ 1.2020_04_11_12_37_46.0.svg"
   inkscape:version="0.92.4 (unknown)">
  <defs
     id="defs2" />
  <sodipodi:namedview
     id="base"
     pagecolor="#ffffff"
     bordercolor="#666666"
     borderopacity="1.0"
     inkscape:pageopacity="0.0"
     inkscape:pageshadow="2"
     inkscape:zoom="0.66125533"
     inkscape:cx="328.60797"
     inkscape:cy="218.91609"
     inkscape:document-units="mm"
     inkscape:current-layer="layer1"
     showgrid="false"
     inkscape:window-width="1024"
     inkscape:window-height="549"
     inkscape:window-x="0"
     inkscape:window-y="0"
     inkscape:window-maximized="1" />
  <metadata
     id="metadata5">
    <rdf:RDF>
      <cc:Work
         rdf:about="">
        <dc:format>image/svg+xml</dc:format>
        <dc:type
           rdf:resource="http://purl.org/dc/dcmitype/StillImage" />
        <dc:title />
      </cc:Work>
    </rdf:RDF>
  </metadata>
  <g
     inkscape:label="Layer 1"
     inkscape:groupmode="layer"
     id="layer1"
     transform="translate(-11.405596,-106.25008)">
    <flowRoot
       xml:space="preserve"
       id="flowRoot12"
       style="font-style:normal;font-variant:normal;font-weight:normal;font-stretch:condensed;font-size:192px;line-height:1.25;font-family:'Liberation Sans Narrow';-inkscape-font-specification:'Liberation Sans Narrow, Condensed';font-variant-ligatures:normal;font-variant-caps:normal;font-variant-numeric:normal;font-feature-settings:normal;text-align:center;letter-spacing:0px;word-spacing:0px;writing-mode:lr-tb;text-anchor:middle;fill:#ffffff;fill-opacity:1;stroke:none"
       transform="scale(0.26458333)"><flowRegion
         id="flowRegion14"
         style="font-style:normal;font-variant:normal;font-weight:normal;font-stretch:condensed;font-size:192px;font-family:'Liberation Sans Narrow';-inkscape-font-specification:'Liberation Sans Narrow, Condensed';font-variant-ligatures:normal;font-variant-caps:normal;font-variant-numeric:normal;font-feature-settings:normal;text-align:center;writing-mode:lr-tb;text-anchor:middle;fill:#ffffff"><rect
           id="rect16"
           width="145.5639"
           height="125.71429"
           x="99.248123"
           y="540.26404"
           style="font-style:normal;font-variant:normal;font-weight:normal;font-stretch:condensed;font-size:192px;font-family:'Liberation Sans Narrow';-inkscape-font-specification:'Liberation Sans Narrow, Condensed';font-variant-ligatures:normal;font-variant-caps:normal;font-variant-numeric:normal;font-feature-settings:normal;text-align:center;writing-mode:lr-tb;text-anchor:middle;fill:#ffffff" /></flowRegion><flowPara
         id="flowPara20">A</flowPara></flowRoot>    <ellipse
       style="fill:#808080;fill-rule:evenodd;stroke-width:0.26458332"
       id="path10"
       cx="47.876984"
       cy="146.1013"
       rx="36.471386"
       ry="35.596073" />
    <g
       aria-label="A "
       transform="matrix(0.88413394,-0.01070031,0.00521045,0.68243996,-197.75455,-257.93747)"
       style="font-style:normal;font-variant:normal;font-weight:normal;font-stretch:normal;font-size:133.33410645px;line-height:1.25;font-family:'Comic Sans MS';-inkscape-font-specification:'Comic Sans MS, Normal';font-variant-ligatures:normal;font-variant-caps:normal;font-variant-numeric:normal;font-feature-settings:normal;text-align:center;letter-spacing:0px;word-spacing:0px;writing-mode:lr-tb;text-anchor:middle;fill:#ff0000;fill-opacity:1;stroke:none"
       id="flowRoot22">
      <path
         d="m 307.13919,636.75265 q -5.98962,0 -10.41673,-15.36467 -1.69272,-5.85941 -4.2318,-20.50793 -6.64066,0.91146 -17.38291,3.25522 l -17.31781,3.58075 q -3.25523,8.5287 -11.13288,24.93504 -2.08334,3.64586 -5.66409,3.64586 -2.60418,0 -4.68753,-1.88803 -2.01824,-1.88804 -2.01824,-4.68753 0,-3.12502 9.83079,-23.76316 -1.10678,-1.69272 -1.10678,-3.90627 0,-5.27347 6.38025,-6.77088 7.42191,-13.93237 18.7501,-32.03143 15.42978,-24.67462 19.20584,-24.67462 5.14326,0 7.0313,7.1615 l 4.10158,21.87512 9.70058,45.24766 3.71096,10.28652 q 1.88803,5.27347 1.88803,7.03129 0,2.7995 -2.01824,4.68753 -2.01824,1.88803 -4.62242,1.88803 z m -22.98191,-74.41449 -18.6199,30.01319 q 7.87765,-2.01824 23.89337,-4.88284 z"
         style=""
         id="path38" />
    </g>
    <g
       aria-label="uto"
       transform="matrix(1.5042039,0,0,1.1942204,-471.95395,-583.5089)"
       style="font-style:normal;font-variant:normal;font-weight:normal;font-stretch:normal;font-size:40px;line-height:1.25;font-family:Chilanka;-inkscape-font-specification:'Chilanka, Normal';font-variant-ligatures:normal;font-variant-caps:normal;font-variant-numeric:normal;font-feature-settings:normal;text-align:center;letter-spacing:0px;word-spacing:0px;writing-mode:lr-tb;text-anchor:middle;fill:#000000;fill-opacity:1;stroke:none"
       id="flowRoot845">
      <path
         d="m 387.03125,614.27995 q 0.25391,-0.97656 1.13281,-1.07422 0.52735,-0.0391 0.9375,0.29297 0.41016,0.33203 0.44922,0.83984 0.42969,4.17969 -0.17578,7.67578 0.11719,6.75782 1.21094,8.76953 0.0976,0.19532 0.15625,0.25391 0.46875,0.25391 0.60547,0.76172 0.15625,0.48828 -0.0781,0.9375 -0.23437,0.46875 -0.74219,0.625 -0.50781,0.15625 -1.17187,-0.19531 -1.46485,-0.76172 -2.10938,-5.11719 -1.40625,2.40234 -3.47656,3.71094 -2.89062,1.85547 -5.72266,0.80078 -2.8125,-1.05469 -4.12109,-4.62891 -1.93359,-5.2539 0.46875,-14.21875 0.13672,-0.50781 0.58594,-0.76172 0.46875,-0.27343 0.95703,-0.13672 0.50781,0.13672 0.78125,0.60547 0.27344,0.44922 0.13672,0.95703 -2.22656,8.00782 -0.54688,12.69532 0.87891,2.46093 2.57813,3.08593 1.69922,0.625 3.51562,-0.52734 3.35938,-2.12891 4.4336,-7.83203 -0.0391,-2.40234 0.0586,-5.27344 z"
         style=""
         id="path41" />
      <path
         d="m 395.23437,615.51042 q -0.37109,-0.39063 -0.37109,-0.89844 0,-0.52734 0.37109,-0.89844 0.39063,-0.37109 0.89844,-0.37109 l 3.92578,0.0195 q 0.0195,-0.42969 0.11719,-3.02734 0.11719,-2.61719 0.0391,-4.72657 -0.0195,-0.52734 0.35157,-0.89843 0.37109,-0.39063 0.8789,-0.41016 0.52735,-0.0195 0.89844,0.35156 0.39062,0.35156 0.41016,0.87891 0.0781,2.1875 -0.0391,4.82422 -0.0976,2.63672 -0.11718,3.02734 l 2.94921,0.0195 q 0.52735,0 0.89844,0.39063 0.3711,0.37109 0.3711,0.89843 0,0.50782 -0.39063,0.87891 -0.37109,0.37109 -0.87891,0.37109 -1.52343,0 -3.02734,-0.0195 -0.27344,9.78516 0.91797,13.26172 0.42969,1.28906 0.91797,1.5625 0.50781,0.25391 0.66406,0.76172 0.15625,0.50781 -0.0977,0.97656 -0.23437,0.44922 -0.74218,0.60547 -0.50782,0.15625 -0.97657,-0.0781 -2.5,-1.34766 -3.04687,-7.36328 -0.33203,-3.92579 -0.17578,-9.7461 -1.9336,0 -3.84766,-0.0195 -0.52734,0 -0.89844,-0.37109 z"
         style=""
         id="path43" />
      <path
         d="m 418.08594,612.26823 q 4.86328,0.29297 7.96875,4.80469 1.5625,2.26562 1.71875,5.44922 0.15625,3.18359 -1.52344,5.80078 -1.07422,1.67968 -2.79297,2.77343 -1.69922,1.09375 -3.65234,1.44532 -2.92969,0.54687 -5.6836,-0.54688 -2.73437,-1.11328 -4.39453,-3.67187 -2.08984,-3.22266 -1.54297,-7.10938 0.54688,-3.88672 3.26172,-6.36719 2.71485,-2.48046 6.17188,-2.63671 0.23437,-0.0195 0.46875,0.0586 z m -0.44922,2.48047 q -2.48047,0.15625 -4.51172,1.99219 -2.01172,1.83593 -2.44141,4.80468 -0.41015,2.96875 0.9961,5.13672 1.40625,2.14844 3.4375,2.96875 2.03125,0.82031 3.86718,0.46875 3.51563,-0.64453 5.11719,-3.16406 1.25,-1.93359 1.13281,-4.35547 -0.11718,-2.42187 -1.30859,-4.16016 -2.34375,-3.39843 -5.97656,-3.63281 -0.15625,0 -0.3125,-0.0586 z"
         style=""
         id="path45" />
    </g>
    <g
       aria-label="+"
       transform="matrix(1.4203914,0,0,1.2080451,-275.31212,-767.59218)"
       style="font-style:normal;font-variant:normal;font-weight:normal;font-stretch:normal;font-size:39.99976349px;line-height:1.25;font-family:'Comic Sans MS';-inkscape-font-specification:'Comic Sans MS, Normal';font-variant-ligatures:normal;font-variant-caps:normal;font-variant-numeric:normal;font-feature-settings:normal;text-align:center;letter-spacing:0px;word-spacing:0px;writing-mode:lr-tb;text-anchor:middle;fill:#ff0000;fill-opacity:1;stroke:none"
       id="flowRoot853">
      <path
         d="m 329.48726,755.95203 q 0,0.72265 -0.48828,1.26952 -0.46875,0.52734 -1.1914,0.52734 -0.23438,0 -0.70312,-0.0781 -0.46875,-0.0781 -0.72265,-0.0781 l -1.95312,0.0391 q -1.1914,0.0391 -1.95311,0 v 4.58982 q 0,1.7578 -1.73827,1.7578 -0.85937,0 -1.30859,-0.42968 -0.42968,-0.44922 -0.42968,-1.32812 l -0.0195,-2.24608 -0.0195,-2.26561 q -2.36326,0.13672 -3.33982,0.13672 -3.02733,0 -3.02733,-1.79687 0,-1.26952 1.07422,-1.58202 0.37109,-0.0977 1.95311,-0.0977 0.97656,0 3.33982,-0.13671 l -0.0195,-2.28515 q 0,-1.77733 0.17578,-2.46092 0.19531,-0.70312 0.60547,-1.05468 0.41015,-0.35156 1.05468,-0.35156 0.74218,0 1.24999,0.48828 0.52734,0.46874 0.52734,1.21093 0,0.33203 -0.0781,1.05468 -0.0586,0.72265 -0.0586,1.09374 l 0.0195,2.22655 1.46483,0.0586 q 0.39062,0 1.1914,-0.0391 0.80078,-0.0586 1.1914,-0.0586 3.20311,0 3.20311,1.83593 z"
         style=""
         id="path48" />
    </g>
  </g>
</svg>
